<svg width="38" height="210" viewBox="0 0 38 210" fill="none" xmlns="http://www.w3.org/2000/svg">
<g clip-path="url(#clip0_231_25464)">
<path d="M26.8957 38.8256L30.3246 35.3967L26.9582 32.0213L24.3507 34.6287L22.4309 32.7089L25.1187 30.0211L21.2433 26.1457L18.5555 28.8335L16.1892 26.4761L12.6799 29.9854L15.0373 32.3517L13.0906 34.2983L10.6082 31.8159L7.14355 35.2806L10.4475 38.5845L13.0906 35.9414L15.323 38.1737L12.8406 40.6561L16.4035 44.219L18.868 41.7545L21.7344 44.6476L25.3598 41.0223L22.4755 38.147L24.3507 36.2718L26.8957 38.8256ZM26.9582 33.6643L28.6816 35.3967L26.8957 37.1826L25.1723 35.4502L26.9582 33.6643ZM10.4475 36.9504L8.78659 35.2895L10.6082 33.4679L12.2691 35.1288L10.4475 36.9504ZM21.2343 27.7887L23.4667 30.0211L21.6005 31.8874L19.3681 29.655L21.2343 27.7887ZM20.7789 32.7178L18.9127 34.593L16.6803 32.3606L18.5555 30.4854L20.7879 32.7178H20.7789ZM14.3229 29.9854L16.1892 28.1191L17.734 29.655L15.8588 31.5302L14.3229 29.9854ZM13.9121 35.1198L15.8588 33.1732L18.0911 35.4056L16.1445 37.3522L13.9121 35.1198ZM16.4035 42.576L14.4836 40.6561L16.1445 38.9953L18.0554 40.924L16.4035 42.576ZM16.966 38.1737L18.9127 36.2271L20.8325 38.147L18.8769 40.1025L16.966 38.1737ZM23.7257 41.0223L21.7523 42.9957L19.6985 40.933L21.663 38.9685L23.7257 41.0223ZM21.654 37.3254L19.7342 35.4056L21.6094 33.5304L23.5292 35.4502L21.654 37.3254Z" fill="#E9B689"/>
<path d="M18.7341 114.718C18.5377 114.718 18.3502 114.718 18.1537 114.735V115.896C18.3502 115.878 18.5377 115.878 18.7341 115.878C18.9306 115.878 19.1181 115.878 19.3146 115.896V114.735C19.1181 114.718 18.9306 114.718 18.7341 114.718ZM18.7341 115.298C18.5377 115.298 18.3502 115.298 18.1537 115.316V115.896C18.3502 115.878 18.5377 115.878 18.7341 115.878C18.9306 115.878 19.1181 115.878 19.3146 115.896V115.316C19.1181 115.298 18.9306 115.298 18.7341 115.298ZM18.7341 115.298C18.5377 115.298 18.3502 115.298 18.1537 115.316V115.896C18.3502 115.878 18.5377 115.878 18.7341 115.878C18.9306 115.878 19.1181 115.878 19.3146 115.896V115.316C19.1181 115.298 18.9306 115.298 18.7341 115.298ZM26.5385 116.423C26.2974 116.316 26.0563 116.209 25.8152 116.111C25.5563 115.994 25.2884 115.896 25.0205 115.798C24.7348 115.914 24.4401 116.021 24.1454 116.119C23.8061 116.227 23.4579 116.325 23.1096 116.423C23.4579 116.512 23.8061 116.62 24.1454 116.727C24.4401 116.825 24.7437 116.932 25.0295 117.048C31.6194 119.575 36.3074 125.978 36.3074 133.452C36.3074 142.953 28.7352 150.704 19.3146 151.007C19.1181 151.025 18.9306 151.025 18.7341 151.025C18.5377 151.025 18.3502 151.025 18.1537 151.007C8.73307 150.704 1.16084 142.953 1.16084 133.452C1.16084 125.978 5.84884 119.575 12.4388 117.048C12.7246 116.932 13.0192 116.834 13.3139 116.727C13.6622 116.62 14.0104 116.521 14.3587 116.423C14.0104 116.334 13.6622 116.227 13.3139 116.119C13.0192 116.021 12.7246 115.914 12.4388 115.798C12.1709 115.887 11.9031 115.994 11.6441 116.111C11.403 116.2 11.1619 116.307 10.9297 116.423C4.48262 119.379 0 125.897 0 133.443C0 143.774 8.40268 152.177 18.7341 152.177C29.0656 152.177 37.4683 143.774 37.4683 133.443C37.4683 125.897 32.9857 119.388 26.5475 116.423H26.5385ZM19.3146 115.887V115.307C19.1181 115.289 18.9306 115.289 18.7341 115.289C18.5377 115.289 18.3502 115.289 18.1537 115.307V115.887C18.3502 115.869 18.5377 115.869 18.7341 115.869C18.9306 115.869 19.1181 115.869 19.3146 115.887ZM18.7341 115.298C18.5377 115.298 18.3502 115.298 18.1537 115.316V115.896C18.3502 115.878 18.5377 115.878 18.7341 115.878C18.9306 115.878 19.1181 115.878 19.3146 115.896V115.316C19.1181 115.298 18.9306 115.298 18.7341 115.298ZM18.7341 115.298C18.5377 115.298 18.3502 115.298 18.1537 115.316V115.896C18.3502 115.878 18.5377 115.878 18.7341 115.878C18.9306 115.878 19.1181 115.878 19.3146 115.896V115.316C19.1181 115.298 18.9306 115.298 18.7341 115.298Z" fill="#E9B689"/>
<path d="M19.3147 119.807C19.1183 119.807 18.9307 119.79 18.7343 119.79C18.5378 119.79 18.3503 119.79 18.1539 119.807C10.8942 120.111 5.08105 126.112 5.08105 133.452C5.08105 140.792 10.9031 146.801 18.1539 147.096C18.3503 147.096 18.5378 147.114 18.7343 147.114C18.9307 147.114 19.1183 147.114 19.3147 147.096C26.5744 146.792 32.3875 140.792 32.3875 133.452C32.3875 126.112 26.5655 120.111 19.3147 119.807ZM19.3147 145.935C19.1183 145.935 18.9307 145.953 18.7343 145.953C18.5378 145.953 18.3503 145.953 18.1539 145.935C11.5282 145.632 6.24189 140.149 6.24189 133.443C6.24189 126.737 11.5371 121.263 18.1539 120.959C18.3503 120.959 18.5378 120.941 18.7343 120.941C18.9307 120.941 19.1183 120.942 19.3147 120.959C25.9315 121.263 31.2267 126.746 31.2267 133.443C31.2267 140.14 25.9226 145.632 19.3147 145.935Z" fill="#E9B689"/>
<path d="M12.751 127.469V139.426H24.7165V127.469H12.751ZM23.5557 138.265H13.9118V128.63H23.5557V138.265Z" fill="#E9B689"/>
<path d="M18.7341 81.2586C18.5377 81.2586 18.3502 81.2586 18.1537 81.2765V81.8569C18.3502 81.8391 18.5377 81.8391 18.7341 81.8391C18.9306 81.8391 19.1181 81.8391 19.3146 81.8569V81.2765C19.1181 81.2586 18.9306 81.2586 18.7341 81.2586ZM18.7341 81.2586C18.5377 81.2586 18.3502 81.2586 18.1537 81.2765V81.8569C18.3502 81.8391 18.5377 81.8391 18.7341 81.8391C18.9306 81.8391 19.1181 81.8391 19.3146 81.8569V81.2765C19.1181 81.2586 18.9306 81.2586 18.7341 81.2586ZM18.7341 81.2586C18.5377 81.2586 18.3502 81.2586 18.1537 81.2765V81.8569C18.3502 81.8391 18.5377 81.8391 18.7341 81.8391C18.9306 81.8391 19.1181 81.8391 19.3146 81.8569V81.2765C19.1181 81.2586 18.9306 81.2586 18.7341 81.2586ZM18.7341 81.2586C18.5377 81.2586 18.3502 81.2586 18.1537 81.2765V81.8569C18.3502 81.8391 18.5377 81.8391 18.7341 81.8391C18.9306 81.8391 19.1181 81.8391 19.3146 81.8569V81.2765C19.1181 81.2586 18.9306 81.2586 18.7341 81.2586ZM18.7341 81.2586C18.5377 81.2586 18.3502 81.2586 18.1537 81.2765V81.8569C18.3502 81.8391 18.5377 81.8391 18.7341 81.8391C18.9306 81.8391 19.1181 81.8391 19.3146 81.8569V81.2765C19.1181 81.2586 18.9306 81.2586 18.7341 81.2586ZM18.7341 81.2586C18.5377 81.2586 18.3502 81.2586 18.1537 81.2765V81.8569C18.3502 81.8391 18.5377 81.8391 18.7341 81.8391C18.9306 81.8391 19.1181 81.8391 19.3146 81.8569V81.2765C19.1181 81.2586 18.9306 81.2586 18.7341 81.2586ZM18.7341 81.2586C18.5377 81.2586 18.3502 81.2586 18.1537 81.2765V81.8569C18.3502 81.8391 18.5377 81.8391 18.7341 81.8391C18.9306 81.8391 19.1181 81.8391 19.3146 81.8569V81.2765C19.1181 81.2586 18.9306 81.2586 18.7341 81.2586ZM26.7975 82.4998C26.5653 82.3927 26.3421 82.2855 26.101 82.1784C25.842 82.0712 25.592 81.9641 25.3241 81.8659C25.0562 81.9819 24.7705 82.0891 24.4937 82.1873C24.1722 82.3034 23.8329 82.4106 23.5025 82.4998C23.8329 82.5891 24.1544 82.6963 24.4758 82.8124C24.7616 82.9017 25.0384 83.0178 25.3152 83.1338C31.7445 85.7323 36.2985 92.0455 36.2985 99.4124C36.2985 106.779 31.6105 113.28 25.0205 115.807C24.7348 115.923 24.4401 116.03 24.1454 116.128C23.8061 116.236 23.4579 116.334 23.1096 116.432C21.8863 116.745 20.6183 116.923 19.3146 116.968C19.1181 116.986 18.9306 116.986 18.7341 116.986C18.5377 116.986 18.3502 116.986 18.1537 116.968C16.85 116.932 15.582 116.745 14.3587 116.432C14.0104 116.343 13.6622 116.236 13.3139 116.128C13.0192 116.03 12.7246 115.923 12.4388 115.807C5.84884 113.28 1.16084 106.886 1.16084 99.4124C1.16084 91.9384 5.70597 85.7323 12.1442 83.1338C12.412 83.0178 12.6978 82.9106 12.9835 82.8124C13.305 82.6963 13.6354 82.5891 13.9658 82.4998C13.6354 82.4106 13.2961 82.3034 12.9746 82.1873C12.6978 82.098 12.421 81.9819 12.1442 81.8659C11.8852 81.9551 11.6262 82.0712 11.3673 82.1784C11.1262 82.2766 10.9029 82.3838 10.6708 82.4998C4.36654 85.518 0 91.9651 0 99.4034C0 106.842 4.49155 113.458 10.9297 116.414C11.1619 116.53 11.403 116.628 11.6441 116.727C11.9031 116.843 12.1709 116.941 12.4388 117.039C14.2337 117.682 16.1535 118.057 18.1448 118.111C18.3412 118.129 18.5288 118.129 18.7252 118.129C18.9217 118.129 19.1092 118.129 19.3056 118.111C21.3058 118.057 23.2168 117.673 25.0116 117.039C25.2795 116.95 25.5474 116.843 25.8063 116.727C26.0474 116.637 26.2885 116.521 26.5296 116.414C32.9767 113.45 37.4504 106.94 37.4504 99.4034C37.4504 91.8669 33.0839 85.518 26.7796 82.4998H26.7975ZM18.7341 80.6782C18.5377 80.6782 18.3502 80.6782 18.1537 80.6961V81.8569C18.3502 81.8391 18.5377 81.8391 18.7341 81.8391C18.9306 81.8391 19.1181 81.8391 19.3146 81.8569V80.6961C19.1181 80.6782 18.9306 80.6782 18.7341 80.6782Z" fill="#E9B689"/>
<path d="M26.1014 82.1873C25.8424 82.0801 25.5924 81.973 25.3245 81.8747C25.0566 81.9908 24.7709 82.098 24.4941 82.1962C24.1726 82.3123 23.8333 82.4194 23.5029 82.5087C22.1635 82.8927 20.7526 83.1159 19.306 83.1606C19.1096 83.1784 18.9221 83.1784 18.7256 83.1784C18.5292 83.1784 18.3416 83.1784 18.1452 83.1606C16.6986 83.1249 15.2877 82.9016 13.9483 82.5087C13.6179 82.4194 13.2786 82.3123 12.9571 82.1962C12.6803 82.1069 12.4035 81.9908 12.1267 81.8747C11.8677 81.964 11.6088 82.0801 11.3498 82.1873C11.1087 82.2855 10.8855 82.3926 10.6533 82.5087C10.8855 82.6159 11.1087 82.723 11.3498 82.8302C11.6088 82.9373 11.8588 83.0445 12.1267 83.1427C14.0108 83.8571 16.0289 84.2678 18.1363 84.3303C18.3327 84.3482 18.5202 84.3482 18.7167 84.3482C18.9131 84.3482 19.1006 84.3482 19.2971 84.3303C21.4134 84.2678 23.4315 83.8571 25.3067 83.1427C25.5656 83.0534 25.8246 82.9373 26.0835 82.8302C26.3246 82.732 26.5479 82.6248 26.78 82.5087C26.5479 82.4016 26.3246 82.2944 26.0835 82.1873H26.1014Z" fill="#E9B689"/>
<path d="M12.751 93.4296V105.386H24.7165V93.4296H12.751ZM23.5557 104.225H13.9118V94.5905H23.5557V104.225Z" fill="#E9B689"/>
<path d="M19.3147 85.7592C19.1183 85.7592 18.9307 85.7413 18.7343 85.7413C18.5378 85.7413 18.3503 85.7413 18.1539 85.7592C10.8942 86.0628 5.08105 92.0634 5.08105 99.4035C5.08105 106.744 10.9031 112.744 18.1539 113.048C18.3503 113.048 18.5378 113.066 18.7343 113.066C18.9307 113.066 19.1183 113.066 19.3147 113.048C26.5744 112.744 32.3875 106.744 32.3875 99.4035C32.3875 92.0634 26.5655 86.0538 19.3147 85.7592ZM19.3147 111.887C19.1183 111.887 18.9307 111.905 18.7343 111.905C18.5378 111.905 18.3503 111.905 18.1539 111.887C11.5282 111.583 6.24189 106.101 6.24189 99.4035C6.24189 92.7063 11.5371 87.2147 18.1539 86.9111C18.3503 86.9111 18.5378 86.8932 18.7343 86.8932C18.9307 86.8932 19.1183 86.8932 19.3147 86.9111C25.9315 87.2147 31.2267 92.6974 31.2267 99.4035C31.2267 106.11 25.9226 111.583 19.3147 111.887Z" fill="#E9B689"/>
<path d="M12.751 59.6135V71.5791H24.7165V59.6135H12.751ZM23.5557 70.4182H13.9118V60.7744H23.5557V70.4182Z" fill="#E9B689"/>
<path d="M18.7516 156.061L13.7422 161.071L18.7516 166.08L23.7611 161.071L18.7516 156.061ZM15.3852 161.08L18.7606 157.704L22.127 161.08L18.7606 164.446L15.3852 161.08Z" fill="#E9B689"/>
<path d="M19.3142 0H18.1533V17.5822H19.3142V0Z" fill="#E9B689"/>
<path d="M24.6009 169.357H13.3854C10.9298 169.357 8.93848 171.358 8.93848 173.804C8.93848 176.063 10.6262 177.93 12.805 178.206C13.0014 178.233 13.1889 178.251 13.3854 178.251H24.6009C27.0565 178.251 29.0478 176.251 29.0478 173.804C29.0478 171.358 27.0475 169.357 24.6009 169.357ZM24.6009 177.09H13.3854C11.5727 177.09 10.0993 175.617 10.0993 173.804C10.0993 171.992 11.5816 170.518 13.3854 170.518H24.6009C26.4225 170.518 27.8869 171.992 27.8869 173.804C27.8869 175.617 26.4136 177.09 24.6009 177.09Z" fill="#E9B689"/>
<path d="M19.3142 53.1128V60.1939H18.1533V53.1128C18.3498 53.1128 18.5373 53.0949 18.7337 53.0949C18.9302 53.0949 19.1177 53.0949 19.3142 53.1128Z" fill="#E9B689"/>
<path d="M19.3142 70.9987H18.1533V94.01H19.3142V70.9987Z" fill="#E9B689"/>
<path d="M19.3142 105.225H18.1533V128.049H19.3142V105.225Z" fill="#E9B689"/>
<path d="M19.3142 138.845H18.1533V151.597H19.3142V138.845Z" fill="#E9B689"/>
<path d="M19.3143 16.734C19.1268 16.6982 18.9393 16.6804 18.7339 16.6804C18.5285 16.6804 18.341 16.6982 18.1535 16.734C16.5372 17.0019 15.2871 18.4127 15.2871 20.1183C15.2871 22.0113 16.8319 23.5651 18.7339 23.5651C20.6359 23.5651 22.1718 22.0202 22.1718 20.1183C22.1718 18.4216 20.9306 17.0108 19.3143 16.734ZM18.7339 22.4042C17.4838 22.4042 16.4479 21.3773 16.4479 20.1183C16.4479 18.8592 17.4748 17.8412 18.7339 17.8412C19.993 17.8412 21.0109 18.8592 21.0109 20.1183C21.0109 21.3773 19.993 22.4042 18.7339 22.4042Z" fill="#E9B689"/>
<path d="M13.9655 177.671H12.8047V209.29H13.9655V177.671Z" fill="#E9B689"/>
<path d="M17.4118 177.671H16.251V209.29H17.4118V177.671Z" fill="#E9B689"/>
<path d="M20.8503 177.671H19.6895V209.29H20.8503V177.671Z" fill="#E9B689"/>
<path d="M24.2878 177.671H23.127V209.29H24.2878V177.671Z" fill="#E9B689"/>
<path d="M37.4683 65.5963C37.4683 73.0435 33.1017 79.4817 26.7975 82.4998C26.5653 82.3927 26.3421 82.2855 26.101 82.1784C25.842 82.0712 25.592 81.9641 25.3241 81.8659C31.7534 79.2584 36.3074 72.9453 36.3074 65.5873C36.3074 56.0952 28.7352 48.3355 19.3146 48.0319V51.943C26.5743 52.2466 32.3874 58.2383 32.3874 65.5873C32.3874 72.9363 26.5653 78.928 19.3146 79.2316V78.0708C25.9313 77.7672 31.2265 72.2934 31.2265 65.5873C31.2265 58.8813 25.9224 53.4075 19.3146 53.1039C19.1181 53.1039 18.9306 53.086 18.7341 53.086C18.5377 53.086 18.3502 53.086 18.1537 53.1039C11.528 53.4075 6.24174 58.8813 6.24174 65.5873C6.24174 72.2934 11.5369 77.7672 18.1537 78.0708V79.2316C10.894 78.928 5.0809 72.9274 5.0809 65.5873C5.0809 58.2473 10.9029 52.2466 18.1537 51.943V48.0319C8.73307 48.3355 1.16084 56.0952 1.16084 65.5873C1.16084 72.9453 5.70597 79.2584 12.1442 81.8659C11.8852 81.9551 11.6262 82.0712 11.3673 82.1784C11.1262 82.2766 10.9029 82.3838 10.6708 82.4998C4.36654 79.4817 0 73.0346 0 65.5963C0 55.2648 8.40268 46.8621 18.7341 46.8621C29.0656 46.8621 37.4683 55.2648 37.4683 65.5963Z" fill="#E9B689"/>
</g>
<defs>
<clipPath id="clip0_231_25464">
<rect width="37.4683" height="209.299" fill="white"/>
</clipPath>
</defs>
</svg>
